<?xml version="1.0" encoding="UTF-8" standalone="no"?>
<!-- Created with Inkscape (http://www.inkscape.org/) -->

<svg
   xmlns:dc="http://purl.org/dc/elements/1.1/"
   xmlns:cc="http://creativecommons.org/ns#"
   xmlns:rdf="http://www.w3.org/1999/02/22-rdf-syntax-ns#"
   xmlns:svg="http://www.w3.org/2000/svg"
   xmlns="http://www.w3.org/2000/svg"
   version="1.1"
   width="744.09448"
   height="1052.3622"
   id="svg4411">
  <defs
     id="defs4413" />
  <metadata
     id="metadata4416">
    <rdf:RDF>
      <cc:Work
         rdf:about="">
        <dc:format>image/svg+xml</dc:format>
        <dc:type
           rdf:resource="http://purl.org/dc/dcmitype/StillImage" />
        <dc:title></dc:title>
      </cc:Work>
    </rdf:RDF>
  </metadata>
  <g
     id="layer1">
    <path
       d="m 367.25312,521.82093 c -1.54624,0 -2.79374,1.2475 -2.79374,2.79375 0,1.5275 1.2475,2.775 2.79374,2.775 1.52751,0 2.77501,-1.2475 2.77501,-2.775 0,-1.54625 -1.2475,-2.79375 -2.77501,-2.79375"
       id="path3417"
       style="fill:#ed1c24;fill-opacity:1;fill-rule:evenodd;stroke:none" />
    <path
       d="m 367.25312,529.58593 c -1.54624,0 -2.79374,1.2475 -2.79374,2.77625 0,1.54625 1.2475,2.79375 2.79374,2.79375 1.52751,0 2.77501,-1.2475 2.77501,-2.79375 0,-1.52875 -1.2475,-2.77625 -2.77501,-2.77625"
       id="path3419"
       style="fill:#ed1c24;fill-opacity:1;fill-rule:evenodd;stroke:none" />
    <path
       d="m 367.25312,537.35081 c -1.54624,0 -2.79374,1.24762 -2.79374,2.77637 0,1.54625 1.2475,2.77625 2.79374,2.77625 1.52751,0 2.77501,-1.23 2.77501,-2.77625 0,-1.52875 -1.2475,-2.77637 -2.77501,-2.77637"
       id="path3421"
       style="fill:#ed1c24;fill-opacity:1;fill-rule:evenodd;stroke:none" />
    <path
       d="m 375.00063,526.21343 c -1.52876,0 -2.77626,1.2475 -2.77626,2.7925 0,1.52863 1.2475,2.77625 2.77626,2.77625 1.545,0 2.7925,-1.24762 2.7925,-2.77625 0,-1.545 -1.2475,-2.7925 -2.7925,-2.7925"
       id="path3423"
       style="fill:#ed1c24;fill-opacity:1;fill-rule:evenodd;stroke:none" />
    <path
       d="m 375.00063,533.97831 c -1.52876,0 -2.77626,1.24762 -2.77626,2.77637 0,1.545 1.2475,2.7925 2.77626,2.7925 1.545,0 2.7925,-1.2475 2.7925,-2.7925 0,-1.52875 -1.2475,-2.77637 -2.7925,-2.77637"
       id="path3425"
       style="fill:#ed1c24;fill-opacity:1;fill-rule:evenodd;stroke:none" />
    <path
       d="m 382.76562,529.58593 c -1.52875,0 -2.77625,1.2475 -2.77625,2.77625 0,1.54625 1.2475,2.79375 2.77625,2.79375 1.54626,0 2.77501,-1.2475 2.77501,-2.79375 0,-1.52875 -1.22875,-2.77625 -2.77501,-2.77625"
       id="path3427"
       style="fill:#ed1c24;fill-opacity:1;fill-rule:evenodd;stroke:none" />
  </g>
</svg>
