<?xml version="1.0" encoding="UTF-8" standalone="no"?>
<!-- Created with Inkscape (http://www.inkscape.org/) -->

<svg
   xmlns:dc="http://purl.org/dc/elements/1.1/"
   xmlns:cc="http://creativecommons.org/ns#"
   xmlns:rdf="http://www.w3.org/1999/02/22-rdf-syntax-ns#"
   xmlns:svg="http://www.w3.org/2000/svg"
   xmlns="http://www.w3.org/2000/svg"
   version="1.1"
   width="744.09448"
   height="1052.3622"
   id="svg4512">
  <defs
     id="defs4514" />
  <metadata
     id="metadata4517">
    <rdf:RDF>
      <cc:Work
         rdf:about="">
        <dc:format>image/svg+xml</dc:format>
        <dc:type
           rdf:resource="http://purl.org/dc/dcmitype/StillImage" />
        <dc:title></dc:title>
      </cc:Work>
    </rdf:RDF>
  </metadata>
  <g
     id="layer1">
    <path
       d="m 349.97137,471.70981 -16.32125,27.37125 32.3925,0 -16.07125,-27.37125 z"
       id="path3693"
       style="fill:none;stroke:#000000;stroke-width:2.18876243;stroke-linecap:butt;stroke-linejoin:miter;stroke-miterlimit:4;stroke-opacity:1;stroke-dasharray:none" />
    <path
       d="m 352.18512,486.63856 c -0.53625,-0.44625 -1.22125,-0.74375 -1.93625,-0.74375 -0.53625,0 -1.25,0.3125 -1.25,0.9375 0,0.655 0.78875,0.90875 1.295,1.0725 l 0.745,0.2225 c 1.56375,0.4625 2.76875,1.25125 2.76875,3.0675 0,1.11625 -0.26875,2.2625 -1.16125,3.0225 -0.87875,0.74375 -2.055,1.05625 -3.18625,1.05625 -1.41375,0 -2.79875,-0.47625 -3.945,-1.28 l 1.25,-2.3525 c 0.73,0.64 1.59375,1.16125 2.59125,1.16125 0.68375,0 1.41375,-0.3425 1.41375,-1.13125 0,-0.81875 -1.14625,-1.10125 -1.77125,-1.28 -1.83125,-0.52125 -3.0375,-0.9975 -3.0375,-3.17125 0,-2.2775 1.62375,-3.76625 3.87125,-3.76625 1.13125,0 2.51625,0.3575 3.51375,0.9225 l -1.16125,2.2625 z"
       id="path3695"
       style="fill:#000000;fill-opacity:1;fill-rule:nonzero;stroke:none" />
    <path
       d="m 336.9853,496.27915 c 0.574,-0.93983 3.72825,-6.233 7.00945,-11.76259 l 5.96581,-10.0538 6.70368,11.42348 c 3.68702,6.28292 6.70367,11.57608 6.70367,11.76258 0,0.18651 -6.1709,0.3391 -13.71312,0.3391 l -13.71312,0 1.04363,-1.70877 z m 15.86704,-1.97167 c 2.1263,-2.1263 1.07477,-5.6171 -1.97167,-6.54548 -1.64383,-0.50094 -1.49746,-1.5239 0.17238,-1.20469 1.05539,0.20175 1.48158,-0.0179 1.92563,-0.99249 0.71189,-1.56244 0.47975,-1.79168 -2.17493,-2.14775 -5.15864,-0.69192 -7.11299,5.02032 -2.39243,6.99269 1.04239,0.43554 1.78052,1.07139 1.65136,1.42253 -0.24433,0.66422 -0.31999,0.66733 -2.5598,0.10517 -1.13706,-0.28538 -1.45432,-0.13434 -1.76341,0.83951 -0.51271,1.61541 0.90832,2.58206 3.7958,2.58206 1.56448,0 2.59091,-0.32539 3.31707,-1.05155 z"
       id="path5366"
       style="fill:#f7d32d;fill-opacity:1;fill-rule:nonzero;stroke:#064f73;stroke-width:0.94272065;stroke-linecap:round;stroke-miterlimit:4;stroke-opacity:0;stroke-dasharray:none" />
  </g>
</svg>
