<?xml version="1.0" encoding="UTF-8" standalone="no"?>
<!-- Created with Inkscape (http://www.inkscape.org/) -->

<svg
   xmlns:dc="http://purl.org/dc/elements/1.1/"
   xmlns:cc="http://creativecommons.org/ns#"
   xmlns:rdf="http://www.w3.org/1999/02/22-rdf-syntax-ns#"
   xmlns:svg="http://www.w3.org/2000/svg"
   xmlns="http://www.w3.org/2000/svg"
   version="1.1"
   width="744.09448"
   height="1052.3622"
   id="svg4998">
  <defs
     id="defs5000" />
  <metadata
     id="metadata5003">
    <rdf:RDF>
      <cc:Work
         rdf:about="">
        <dc:format>image/svg+xml</dc:format>
        <dc:type
           rdf:resource="http://purl.org/dc/dcmitype/StillImage" />
        <dc:title></dc:title>
      </cc:Work>
    </rdf:RDF>
  </metadata>
  <g
     id="layer1">
    <path
       d="m 208.95982,355.72834 c -1.3425,0 -2.49125,0.47625 -3.445,1.43 -0.955,0.95375 -1.43125,2.095 -1.43125,3.4275 0,1.38625 0.475,2.5475 1.42375,3.4825 0.95,0.935 2.1275,1.4025 3.53375,1.4025 1.30625,0 2.43375,-0.48625 3.38375,-1.4575 0.94875,-0.97125 1.42375,-2.12375 1.42375,-3.455 0,-1.305 -0.48625,-2.435 -1.45875,-3.3925 -0.9725,-0.95875 -2.11625,-1.4375 -3.43,-1.4375 m 11.495,-1.22625 -1.6025,1.6025 0,-4.5475 -4.7375,4.9575 c 0.5575,0.8675 0.93625,1.58875 1.13625,2.16375 0.20125,0.575 0.3025,1.22875 0.3025,1.95875 0,1.79875 -0.64875,3.3425 -1.94625,4.63 -1.29625,1.2875 -2.84875,1.93125 -4.6575,1.93125 -1.79875,0 -3.34,-0.64125 -4.62375,-1.925 -1.2825,-1.28375 -1.92375,-2.82375 -1.92375,-4.62375 0,-1.8725 0.63625,-3.44 1.91,-4.70625 1.2725,-1.26375 2.85375,-1.89625 4.74375,-1.89625 0.69375,0 1.31,0.0937 1.84875,0.28125 0.53875,0.18625 1.2325,0.555 2.08125,1.1025 l 4.73,-4.88625 -4.35375,0 1.5875,-1.59 5.49125,0 0.0138,5.5475 z"
       id="path3717"
       style="fill:#ed2224;fill-opacity:1;fill-rule:nonzero;stroke:none" />
  </g>
</svg>
