<?xml version="1.0" encoding="UTF-8" standalone="no"?>
<!-- Created with Inkscape (http://www.inkscape.org/) -->

<svg
   xmlns:dc="http://purl.org/dc/elements/1.1/"
   xmlns:cc="http://creativecommons.org/ns#"
   xmlns:rdf="http://www.w3.org/1999/02/22-rdf-syntax-ns#"
   xmlns:svg="http://www.w3.org/2000/svg"
   xmlns="http://www.w3.org/2000/svg"
   version="1.1"
   width="744.09448"
   height="1052.3622"
   id="svg5888">
  <defs
     id="defs5890">
    <clipPath
       id="clipPath4205">
      <path
         d="m 18.14,14.16998 575.72,0 0,763.66 -575.72,0 0,-763.66 z"
         id="path4207" />
    </clipPath>
    <clipPath
       id="clipPath4163">
      <path
         d="m 349.594,324.5 c 5.443,0 9.856,4.413 9.856,9.856 0,5.443 -4.413,9.856 -9.856,9.856 -5.443,0 -9.856,-4.413 -9.856,-9.856 0,-5.443 4.413,-9.856 9.856,-9.856"
         id="path4165" />
    </clipPath>
    <clipPath
       id="clipPath4169">
      <path
         d="m 335.063,354.784 53.25,0 0,-47.832 -53.25,0 0,47.832 z"
         id="path4171" />
    </clipPath>
    <clipPath
       id="clipPath4175">
      <path
         d="m 335.063,354.784 53.25,0 0,-47.832 -53.25,0 0,47.832 z"
         id="path4177" />
    </clipPath>
    <clipPath
       id="clipPath4181">
      <path
         d="m 410.468,272.787 -122.943,0 0,122.996 122.943,0 0,-122.996 z"
         id="path4183" />
    </clipPath>
    <clipPath
       id="clipPath4187">
      <path
         d="m 18.14,14.16998 575.72,0 0,763.66 -575.72,0 0,-763.66 z"
         id="path4189" />
    </clipPath>
  </defs>
  <metadata
     id="metadata5893">
    <rdf:RDF>
      <cc:Work
         rdf:about="">
        <dc:format>image/svg+xml</dc:format>
        <dc:type
           rdf:resource="http://purl.org/dc/dcmitype/StillImage" />
        <dc:title></dc:title>
      </cc:Work>
    </rdf:RDF>
  </metadata>
  <g
     id="layer1">
    <g
       transform="matrix(1.25,0,0,-1.25,-87.423513,963.24466)"
       id="g4159">
      <g
         clip-path="url(#clipPath4163)"
         id="g4161">
        <g
           clip-path="url(#clipPath4169)"
           id="g4167">
          <g
             clip-path="url(#clipPath4175)"
             id="g4173">
            <g
               clip-path="url(#clipPath4181)"
               id="g4179">
              <g
                 clip-path="url(#clipPath4187)"
                 id="g4185">
                <path
                   d="m 335.063,334.27 0,0.41 0.819,4.511 0,0.41 0,0.41 0.41,0.41 0,0.41 1.639,2.051 0.41,0.41 0,0.41 0.41,0 0,0.41 0.41,0 0,0.41 0.409,0 0,0.41 3.279,2.46 0.41,0 0.41,0.411 0.409,0 4.098,0.82 0.41,0 0.41,0 0.41,0 4.508,-0.82 0.41,0 0.409,0 0.41,-0.411 0.41,0 3.279,-2.46 0,-0.41 0.409,0 0,-0.41 0.41,0 2.459,-3.281 0,-0.41 0.41,-0.41 0,-0.41 0,-0.41 0.819,-4.511 0,-0.41 0,-0.41 0,-0.41 -0.819,-4.101 0,-0.41 -0.41,-0.411 0,-0.41 -2.459,-3.28 -0.41,0 0,-0.41 -0.409,0 0,-0.41 -3.279,-2.461 -0.41,0 -0.41,-0.41 -0.409,0 -0.41,0 -4.508,-0.82 -0.41,0 -0.41,0 -0.41,0 -4.098,0.82 -0.409,0 -0.41,0.41 -0.41,0 -2.049,1.64 -1.23,0.821 -0.409,0 0,0.41 -0.41,0 0,0.41 -0.41,0 0,0.41 -2.049,3.28 -0.41,0.411 0,0.41 -0.819,4.101 0,0.41 0,0.41 z"
                   id="path4191-8"
                   style="fill:#ffffff;fill-opacity:1;fill-rule:evenodd;stroke:none" />
                <text
                   transform="matrix(0.99932665,0,0,-1,338.5459,324.0175)"
                   id="text4193">
                  <tspan
                     x="0"
                     y="0"
                     id="tspan4195"
                     style="font-size:30.75650024px;font-variant:normal;font-weight:normal;writing-mode:lr-tb;fill:#ffffff;fill-opacity:1;fill-rule:nonzero;stroke:none;font-family:ESRI Hazardous Materials;-inkscape-font-specification:ESRIHazardousMaterials">Ñ</tspan>
                </text>
                <text
                   transform="matrix(0.99932665,0,0,-1,338.341,323.6075)"
                   id="text4197">
                  <tspan
                     x="0"
                     y="0"
                     id="tspan4199"
                     style="font-size:30.75650024px;font-variant:normal;font-weight:normal;writing-mode:lr-tb;fill:#005b85;fill-opacity:1;fill-rule:nonzero;stroke:none;font-family:ESRI Hazardous Materials;-inkscape-font-specification:ESRIHazardousMaterials">Ü</tspan>
                </text>
              </g>
            </g>
          </g>
        </g>
      </g>
    </g>
    <g
       transform="matrix(1.25,0,0,-1.25,-87.423513,963.24466)"
       id="g4201">
      <g
         clip-path="url(#clipPath4205)"
         id="g4203">
        <path
           d="m 349.594,324.5 c 5.443,0 9.856,4.413 9.856,9.856 0,5.443 -4.413,9.856 -9.856,9.856 -5.443,0 -9.856,-4.413 -9.856,-9.856 0,-5.443 4.413,-9.856 9.856,-9.856 z"
           id="path4209-8"
           style="fill:none;stroke:#005882;stroke-width:1;stroke-linecap:butt;stroke-linejoin:miter;stroke-miterlimit:4;stroke-opacity:1;stroke-dasharray:none" />
      </g>
    </g>
  </g>
</svg>
