<?xml version="1.0" encoding="UTF-8" standalone="no"?>
<!-- Created with Inkscape (http://www.inkscape.org/) -->

<svg
   xmlns:dc="http://purl.org/dc/elements/1.1/"
   xmlns:cc="http://creativecommons.org/ns#"
   xmlns:rdf="http://www.w3.org/1999/02/22-rdf-syntax-ns#"
   xmlns:svg="http://www.w3.org/2000/svg"
   xmlns="http://www.w3.org/2000/svg"
   version="1.1"
   width="744.09448"
   height="1052.3622"
   id="svg6231">
  <defs
     id="defs6233">
    <clipPath
       id="clipPath4267">
      <path
         d="m 349.594,247.845 c 5.443,0 9.856,4.413 9.856,9.856 0,5.443 -4.413,9.856 -9.856,9.856 -5.443,0 -9.856,-4.413 -9.856,-9.856 0,-5.443 4.413,-9.856 9.856,-9.856"
         id="path4269" />
    </clipPath>
    <clipPath
       id="clipPath4273">
      <path
         d="m 335.438,277.875 53.25,0 0,-47.832 -53.25,0 0,47.832 z"
         id="path4275" />
    </clipPath>
    <clipPath
       id="clipPath4279">
      <path
         d="m 335.438,277.875 53.25,0 0,-47.832 -53.25,0 0,47.832 z"
         id="path4281" />
    </clipPath>
    <clipPath
       id="clipPath4285">
      <path
         d="m 410.843,195.878 -122.943,0 0,122.996 122.943,0 0,-122.996 z"
         id="path4287" />
    </clipPath>
    <clipPath
       id="clipPath4291">
      <path
         d="m 18.14,14.16998 575.72,0 0,763.66 -575.72,0 0,-763.66 z"
         id="path4293" />
    </clipPath>
  </defs>
  <metadata
     id="metadata6236">
    <rdf:RDF>
      <cc:Work
         rdf:about="">
        <dc:format>image/svg+xml</dc:format>
        <dc:type
           rdf:resource="http://purl.org/dc/dcmitype/StillImage" />
        <dc:title></dc:title>
      </cc:Work>
    </rdf:RDF>
  </metadata>
  <g
     id="layer1">
    <g
       transform="matrix(1.25,0,0,-1.25,-61.9925,854.48843)"
       id="g4263">
      <g
         clip-path="url(#clipPath4267)"
         id="g4265">
        <g
           clip-path="url(#clipPath4273)"
           id="g4271">
          <g
             clip-path="url(#clipPath4279)"
             id="g4277">
            <g
               clip-path="url(#clipPath4285)"
               id="g4283">
              <g
                 clip-path="url(#clipPath4291)"
                 id="g4289">
                <path
                   d="m 335.438,257.361 0,0.41 0.819,4.511 0,0.41 0,0.41 0.41,0.41 0,0.41 1.639,2.05 0.41,0.411 0,0.41 0.41,0 0,0.41 0.41,0 0,0.41 0.409,0 0,0.41 3.279,2.46 0.41,0 0.41,0.41 0.409,0 4.098,0.821 0.41,0 0.41,0 0.41,0 4.508,-0.821 0.41,0 0.409,0 0.41,-0.41 0.41,0 3.279,-2.46 0,-0.41 0.409,0 0,-0.41 0.41,0 2.459,-3.281 0,-0.41 0.41,-0.41 0,-0.41 0,-0.41 0.819,-4.511 0,-0.41 0,-0.41 0,-0.411 -0.819,-4.1 0,-0.411 -0.41,-0.41 0,-0.41 -2.459,-3.28 -0.41,0 0,-0.41 -0.409,0 0,-0.411 -3.279,-2.46 -0.41,0 -0.41,-0.41 -0.409,0 -0.41,0 -4.508,-0.82 -0.41,0 -0.41,0 -0.41,0 -4.098,0.82 -0.409,0 -0.41,0.41 -0.41,0 -2.049,1.64 -1.23,0.82 -0.409,0 0,0.411 -0.41,0 0,0.41 -0.41,0 0,0.41 -2.049,3.28 -0.41,0.41 0,0.411 -0.819,4.1 0,0.411 0,0.41 z"
                   id="path4295"
                   style="fill:#ffffff;fill-opacity:1;fill-rule:evenodd;stroke:none" />
                <text
                   transform="matrix(0.99932665,0,0,-1,338.9209,247.1085)"
                   id="text4297">
                  <tspan
                     x="0"
                     y="0"
                     id="tspan4299"
                     style="font-size:30.75650024px;font-variant:normal;font-weight:normal;writing-mode:lr-tb;fill:#ffffff;fill-opacity:1;fill-rule:nonzero;stroke:none;font-family:ESRI Hazardous Materials;-inkscape-font-specification:ESRIHazardousMaterials">Ñ</tspan>
                </text>
                <text
                   transform="matrix(0.99932665,0,0,-1,338.716,246.6984)"
                   id="text4301">
                  <tspan
                     x="0"
                     y="0"
                     id="tspan4303"
                     style="font-size:30.75650024px;font-variant:normal;font-weight:normal;writing-mode:lr-tb;fill:#185177;fill-opacity:1;fill-rule:nonzero;stroke:none;font-family:ESRI Hazardous Materials;-inkscape-font-specification:ESRIHazardousMaterials">Ø</tspan>
                </text>
              </g>
            </g>
          </g>
        </g>
      </g>
    </g>
    <path
       d="m 374.62792,544.46319 c 6.80375,0 12.32,-5.51625 12.32,-12.32 0,-6.80375 -5.51625,-12.32 -12.32,-12.32 -6.80375,0 -12.32,5.51625 -12.32,12.32 0,6.80375 5.51625,12.32 12.32,12.32 z"
       id="path4313"
       style="fill:none;stroke:#005279;stroke-width:1.25;stroke-linecap:butt;stroke-linejoin:miter;stroke-miterlimit:4;stroke-opacity:1;stroke-dasharray:none" />
  </g>
</svg>
